<?xml version="1.0" encoding="iso-8859-1"?>
<!-- Generator: Adobe Illustrator 19.0.0, SVG Export Plug-In . SVG Version: 6.00 Build 0)  -->
<svg version="1.1" id="Layer_1" xmlns="http://www.w3.org/2000/svg" xmlns:xlink="http://www.w3.org/1999/xlink" x="0px" y="0px"
	 viewBox="-130 -130 800 800" style="enable-background:new 0 0 512.006 512.006;" xml:space="preserve">
<g>
	<g>
		<path d="M489.289,95.129c29.201-29.201,22.033-81.118,21.717-83.302c-0.828-5.606-5.214-9.993-10.82-10.82
			c-2.193-0.316-54.101-7.484-83.302,21.717c-23.603,23.603-23.433,61.611-22.332,76.646l-11.563,11.563
			c0.384-2.842,1.015-5.598,1.015-8.533c0-41.301-41.779-72.934-43.554-74.266c-4.548-3.379-10.752-3.379-15.3,0
			c-1.766,1.331-43.546,32.964-43.546,74.266c0,34.185,28.339,61.457,39.211,70.69l-27.426,27.426
			c0.393-2.833,1.024-5.589,1.024-8.525c0-41.301-41.779-72.934-43.554-74.266c-4.548-3.379-10.752-3.379-15.3,0
			c-1.775,1.331-43.554,32.973-43.554,74.274c0,34.185,28.339,61.457,39.211,70.69l-27.435,27.435
			c0.393-2.833,1.024-5.589,1.024-8.533c0-41.301-41.779-72.934-43.554-74.266c-4.548-3.379-10.752-3.379-15.3,0
			c-1.766,1.331-43.546,32.964-43.546,74.266c0,34.185,28.348,61.457,39.211,70.69L3.75,490.145c-5.001,5-5.001,13.099,0,18.099
			c2.5,2.509,5.777,3.755,9.054,3.755s6.554-1.246,9.054-3.746l112.265-112.265c9.242,10.871,36.506,39.211,70.69,39.211
			c41.301,0,72.934-41.779,74.266-43.554c3.379-4.548,3.379-10.752,0-15.3c-1.323-1.775-32.964-43.554-74.266-43.554
			c-2.935,0-5.692,0.631-8.516,1.024l27.426-27.426c9.233,10.871,36.506,39.211,70.69,39.211c41.301,0,72.934-41.779,74.266-43.554
			c3.379-4.548,3.379-10.752,0-15.3c-1.331-1.775-32.973-43.546-74.274-43.546c-2.935,0-5.692,0.631-8.525,1.024l27.426-27.426
			c9.242,10.863,36.514,39.202,70.699,39.202c41.301,0,72.934-41.779,74.266-43.554c3.379-4.548,3.379-10.752,0-15.3
			c-1.331-1.766-32.964-43.546-74.266-43.546c-2.935,0-5.692,0.631-8.525,1.024l37.163-37.163
			C427.678,118.561,465.685,118.723,489.289,95.129z M434.982,40.823c13.875-13.875,37.786-15.514,51.354-15.189
			c0.307,13.585-1.357,37.598-15.147,51.388c-13.875,13.875-37.786,15.514-51.354,15.189
			C419.52,78.625,421.193,54.604,434.982,40.823z M153.63,328.643c-9.822-9.387-25.626-27.554-25.626-47.053
			c0-19.627,15.753-37.692,25.574-47.053c9.822,9.387,25.626,27.554,25.626,47.053C179.204,301.217,163.452,319.282,153.63,328.643z
			 M204.804,358.391c19.627,0,37.692,15.753,47.053,25.574c-9.387,9.822-27.554,25.626-47.053,25.626
			c-19.627,0-37.692-15.753-47.053-25.574C167.138,374.194,185.306,358.391,204.804,358.391z M243.23,239.052
			c-9.822-9.395-25.626-27.554-25.626-47.053c0-19.627,15.753-37.692,25.574-47.053c9.822,9.387,25.626,27.554,25.626,47.053
			C268.804,211.626,253.052,229.691,243.23,239.052z M294.404,268.799c19.627,0,37.692,15.744,47.053,25.574
			c-9.387,9.822-27.554,25.626-47.053,25.626c-19.627,0-37.692-15.753-47.053-25.574
			C256.738,284.603,274.906,268.799,294.404,268.799z M332.83,149.452c-9.822-9.387-25.626-27.554-25.626-47.053
			c0-19.627,15.753-37.692,25.574-47.053c9.822,9.387,25.626,27.554,25.626,47.053C358.404,122.026,342.652,140.091,332.83,149.452z
			 M384.004,179.199c19.627,0,37.683,15.753,47.053,25.574c-9.387,9.822-27.554,25.626-47.053,25.626
			c-19.627,0-37.692-15.753-47.053-25.574C346.338,195.003,364.506,179.199,384.004,179.199z"/>
	</g>
</g>
<g>
</g>
<g>
</g>
<g>
</g>
<g>
</g>
<g>
</g>
<g>
</g>
<g>
</g>
<g>
</g>
<g>
</g>
<g>
</g>
<g>
</g>
<g>
</g>
<g>
</g>
<g>
</g>
<g>
</g>
</svg>
